<svg width="30" height="30" viewBox="0 0 30 30" fill="none" xmlns="http://www.w3.org/2000/svg">
<path d="M27.9545 12.2727H17.7272V2.04545C17.7272 0.91636 16.8108 0 15.6817 0H14.3182C13.1891 0 12.2727 0.91636 12.2727 2.04545V12.2727H2.04545C0.91636 12.2727 0 13.1891 0 14.3182V15.6817C0 16.8108 0.91636 17.7272 2.04545 17.7272H12.2727V27.9545C12.2727 29.0836 13.1891 29.9999 14.3182 29.9999H15.6817C16.8108 29.9999 17.7272 29.0836 17.7272 27.9545V17.7272H27.9545C29.0836 17.7272 29.9999 16.8108 29.9999 15.6817V14.3182C29.9999 13.1891 29.0836 12.2727 27.9545 12.2727Z" fill="black"/>
</svg>
