<svg width="30" height="28" viewBox="0 0 30 28" fill="none" xmlns="http://www.w3.org/2000/svg">
<path d="M0.878978 23.6679H5.2735V26.3046C5.2735 26.79 5.66702 27.1835 6.1524 27.1835H29.1211C29.6065 27.1835 30 26.79 30 26.3046V3.45312C30 2.96773 29.6065 2.57422 29.1211 2.57422H24.7266V1.69531C24.7266 1.20992 24.3331 0.816406 23.8477 0.816406C23.3623 0.816406 22.9688 1.20992 22.9688 1.69531V2.57422H18.5157V1.69531C18.5157 1.20992 18.1221 0.816406 17.6368 0.816406C17.1514 0.816406 16.7579 1.20992 16.7579 1.69531V2.57422H12.3633V1.69531C12.3633 1.20992 11.9698 0.816406 11.4844 0.816406C10.999 0.816406 10.6055 1.20992 10.6055 1.69531V2.57422H6.1524C5.66702 2.57422 5.2735 2.96773 5.2735 3.45312V8.72655C5.2735 15.2041 2.58142 20.1872 0.316303 22.1138C0.0320068 22.3507 -0.0734031 22.7403 0.0525146 23.0883C0.17855 23.4362 0.5089 23.6679 0.878978 23.6679ZM28.2422 25.4257H7.03131V23.6679H23.8477C24.0533 23.6679 24.2524 23.5959 24.4104 23.4642C25.4669 22.5842 27.1035 20.489 28.2422 17.8055V25.4257ZM7.03131 4.33202H10.6055V5.21093C10.6055 5.69632 10.999 6.08983 11.4844 6.08983C11.9698 6.08983 12.3633 5.69632 12.3633 5.21093V4.33202H16.7579V5.21093C16.7579 5.69632 17.1514 6.08983 17.6368 6.08983C18.1221 6.08983 18.5157 5.69632 18.5157 5.21093V4.33202H22.9688V5.21093C22.9688 5.69632 23.3623 6.08983 23.8477 6.08983C24.3331 6.08983 24.7266 5.69632 24.7266 5.21093V4.33202H28.2422V7.84764H7.03131V4.33202ZM7.01625 9.60487H28.2266C28.0286 15.1803 25.8887 19.5671 23.503 21.9101H2.87813C5.58123 18.4659 6.87123 13.9813 7.01625 9.60487Z" fill="black"/>
</svg>
