<svg width="30" height="30" viewBox="0 0 30 30" fill="none" xmlns="http://www.w3.org/2000/svg">
<g clip-path="url(#clip0)">
<path d="M0.8776 22.9107H23.8474C24.0534 22.9107 24.2525 22.8386 24.4104 22.7072C24.6311 22.5225 29.6637 18.1931 29.9706 8.84753H5.30151C4.99581 17.3308 0.360956 21.3181 0.31279 21.3579C0.030414 21.5965 -0.0734774 21.9862 0.0535595 22.333C0.179718 22.6789 0.508502 22.9107 0.8776 22.9107Z" fill="black"/>
<path d="M29.1209 3.57381H24.7262V2.69486C24.7262 2.20265 24.3395 1.81592 23.8473 1.81592C23.3551 1.81592 22.9683 2.20265 22.9683 2.69486V3.57381H18.515V2.69486C18.515 2.20265 18.1283 1.81592 17.6361 1.81592C17.1438 1.81592 16.7571 2.20265 16.7571 2.69486V3.57381H12.3624V2.69486C12.3624 2.20265 11.9756 1.81592 11.4834 1.81592C10.9912 1.81592 10.6045 2.20265 10.6045 2.69486V3.57381H6.20976C5.71755 3.57381 5.33081 3.96055 5.33081 4.45276V7.08959H29.9999V4.45276C29.9999 3.96055 29.6132 3.57381 29.1209 3.57381Z" fill="black"/>
<path d="M25.5393 24.0546C25.062 24.452 24.463 24.6683 23.8475 24.6683H5.33105V27.3052C5.33105 27.791 5.72418 28.1841 6.21 28.1841H29.1212C29.607 28.1841 30.0001 27.791 30.0001 27.3052V17.4524C28.3055 21.6099 25.9408 23.7185 25.5393 24.0546Z" fill="black"/>
</g>
<defs>
<clipPath id="clip0">
<rect width="30" height="30" fill="white"/>
</clipPath>
</defs>
</svg>
