<svg width="35" height="35" viewBox="0 0 35 35" fill="none" xmlns="http://www.w3.org/2000/svg">
<path d="M30.248 0H4.75203C2.13174 0 0 2.13174 0 4.75203V30.248C0 32.8684 2.13174 35 4.75203 35H30.248C32.8683 35 35 32.8684 35 30.248V4.75203C35 2.13174 32.8683 0 30.248 0ZM17.5 26.0504C13.1839 26.0504 9.67255 22.539 9.67255 18.2229C9.67255 13.9069 13.184 10.3955 17.5 10.3955C21.816 10.3955 25.3274 13.9069 25.3274 18.2229C25.3274 22.539 21.8161 26.0504 17.5 26.0504ZM32.0367 12.4449H24.9647C23.1794 10.3077 20.4959 8.94576 17.5 8.94576C14.5041 8.94576 11.8206 10.3079 10.0353 12.4449H2.96329V5.64876C2.96329 3.92133 4.36872 2.51602 6.09616 2.51602H28.904C30.6314 2.51602 32.0368 3.92133 32.0368 5.64876V12.4449H32.0367Z" fill="black"/>
<path d="M17.5001 13.1904C14.7255 13.1904 12.468 15.4478 12.468 18.2223C12.468 20.997 14.7254 23.2543 17.5001 23.2543C20.2747 23.2543 22.5321 20.997 22.5321 18.2223C22.5321 15.4478 20.2746 13.1904 17.5001 13.1904Z" fill="black"/>
<path d="M28.1795 4.5249H25.151C24.4589 4.5249 23.8958 5.08816 23.8958 5.78032V8.80878C23.8958 9.50094 24.4588 10.0641 25.151 10.0641H28.1795C28.8717 10.0641 29.4348 9.50106 29.4348 8.80878V5.78032C29.4348 5.08804 28.8717 4.5249 28.1795 4.5249Z" fill="black"/>
</svg>
