<svg width="45" height="45" viewBox="0 0 45 45" fill="none" xmlns="http://www.w3.org/2000/svg">
<g clip-path="url(#clip0)">
<path d="M43.0436 29.7822C42.0638 28.6061 40.9504 27.5521 39.8736 26.5327C39.4908 26.1701 39.0949 25.7953 38.7133 25.4226C37.6177 24.3514 37.5778 23.949 38.4452 22.7323C39.0454 21.8936 39.6816 21.0538 40.297 20.2416C40.8551 19.5047 41.4323 18.7427 41.9855 17.9782L42.0991 17.821C43.1564 16.3581 44.2499 14.8453 44.8318 13.0204C44.9829 12.539 45.1416 11.8305 44.7788 11.238C44.4162 10.6461 43.7129 10.4655 43.2154 10.3811C42.9692 10.3394 42.7249 10.3337 42.4981 10.3337L35.5739 10.3287L35.5167 10.3282C34.4698 10.3282 33.7643 10.8216 33.36 11.8367C32.974 12.8065 32.55 13.8393 32.0662 14.8213C31.1034 16.7767 29.8806 19.029 28.1112 20.9074L28.0364 20.9873C27.8275 21.2118 27.5908 21.4661 27.4177 21.4661C27.3912 21.4661 27.3624 21.461 27.3297 21.4508C26.9631 21.3079 26.7171 20.4207 26.7283 20.008C26.7284 20.0023 26.7285 19.9966 26.7285 19.9909L26.7237 11.988C26.7237 11.9603 26.7217 11.9328 26.7181 11.9053C26.542 10.6043 26.1518 9.79451 24.6776 9.50578C24.6385 9.49798 24.5984 9.49414 24.5586 9.49414H17.3588C16.1858 9.49414 15.5395 9.97089 14.932 10.6845C14.768 10.8752 14.4266 11.2723 14.5958 11.754C14.7675 12.2429 15.3247 12.3475 15.5062 12.3814C16.4069 12.5528 16.9147 13.1038 17.0585 14.0665C17.3095 15.7381 17.3404 17.5224 17.1556 19.6817C17.104 20.2819 17.0021 20.7453 16.8341 21.1413C16.7951 21.2337 16.6568 21.5354 16.5157 21.5355C16.4708 21.5355 16.3412 21.5179 16.105 21.3551C15.5465 20.9725 15.1378 20.4265 14.6614 19.7521C13.0408 17.4617 11.6806 14.9386 10.5027 12.0368C10.0658 10.9686 9.24994 10.3706 8.20428 10.353C7.05531 10.3356 6.01361 10.3271 5.0201 10.3271C3.93455 10.3271 2.92815 10.3372 1.94542 10.3576C1.10413 10.3725 0.522216 10.6246 0.216024 11.1077C-0.0906641 11.5912 -0.0707219 12.2262 0.275355 12.9949C3.0457 19.1538 5.55754 23.6319 8.42005 27.5153C10.4258 30.2326 12.4376 32.1135 14.7506 33.434C17.1875 34.8281 19.9185 35.5059 23.0993 35.5059C23.4599 35.5059 23.8327 35.4971 24.2087 35.4795C26.057 35.3894 26.7427 34.7205 26.8294 32.9208C26.8706 32.0011 26.9712 31.0366 27.4233 30.214C27.7087 29.6958 27.9747 29.6958 28.0622 29.6958C28.2306 29.6958 28.4395 29.7733 28.6638 29.9186C29.0661 30.1812 29.4111 30.533 29.6939 30.8403C29.96 31.1322 30.2232 31.4272 30.4867 31.7222C31.0552 32.359 31.6431 33.0173 32.2572 33.6417C33.6014 35.0093 35.0822 35.6108 36.783 35.4802H43.1313C43.1448 35.4802 43.1584 35.4797 43.1719 35.4789C43.8045 35.4371 44.3523 35.0862 44.675 34.5162C45.0747 33.8101 45.0666 32.9092 44.6534 32.1058C44.1846 31.1974 43.5764 30.4213 43.0436 29.7822Z" fill="black"/>
</g>
<defs>
<clipPath id="clip0">
<rect width="45" height="45" fill="white"/>
</clipPath>
</defs>
</svg>
