<svg width="30" height="30" viewBox="0 0 30 30" fill="none" xmlns="http://www.w3.org/2000/svg">
<path d="M25.9268 0H4.07317C1.82721 0 0 1.82721 0 4.07317V25.9268C0 28.1729 1.82721 30 4.07317 30H25.9268C28.1728 30 30 28.1729 30 25.9268V4.07317C30 1.82721 28.1728 0 25.9268 0ZM15 22.3289C11.3005 22.3289 8.29076 19.3192 8.29076 15.6197C8.29076 11.9202 11.3006 8.91041 15 8.91041C18.6994 8.91041 21.7092 11.9202 21.7092 15.6197C21.7092 19.3192 18.6995 22.3289 15 22.3289ZM27.46 10.6671H21.3983C19.8681 8.83521 17.5679 7.66779 15 7.66779C12.4321 7.66779 10.1319 8.83531 8.60172 10.6671H2.53997V4.84179C2.53997 3.36114 3.74462 2.15659 5.22528 2.15659H24.7748C26.2555 2.15659 27.4601 3.36114 27.4601 4.84179V10.6671H27.46Z" fill="white"/>
<path d="M15.0002 11.3064C12.622 11.3064 10.687 13.2413 10.687 15.6194C10.687 17.9977 12.6219 19.9325 15.0002 19.9325C17.3785 19.9325 19.3134 17.9977 19.3134 15.6194C19.3134 13.2413 17.3784 11.3064 15.0002 11.3064Z" fill="white"/>
<path d="M24.154 3.87819H21.5581C20.9649 3.87819 20.4822 4.36099 20.4822 4.95426V7.55009C20.4822 8.14337 20.9648 8.62606 21.5581 8.62606H24.154C24.7472 8.62606 25.2299 8.14347 25.2299 7.55009V4.95426C25.2299 4.36088 24.7472 3.87819 24.154 3.87819Z" fill="white"/>
</svg>
