<svg width="30" height="30" viewBox="0 0 30 30" fill="none" xmlns="http://www.w3.org/2000/svg">
<g clip-path="url(#clip0)">
<path d="M28.6957 19.8548C28.0425 19.0707 27.3003 18.368 26.5824 17.6884C26.3272 17.4467 26.0633 17.1968 25.8088 16.9483C25.0785 16.2342 25.0519 15.9659 25.6302 15.1548C26.0302 14.5957 26.4544 14.0358 26.8647 13.4944C27.2368 13.0031 27.6216 12.4951 27.9903 11.9854L28.0661 11.8806C28.7709 10.9053 29.4999 9.89684 29.8879 8.68024C29.9886 8.35927 30.0944 7.88693 29.8525 7.49197C29.6108 7.09734 29.142 6.97695 28.8102 6.92071C28.6462 6.89288 28.4832 6.88909 28.332 6.88909L23.716 6.88578L23.6778 6.88545C22.9799 6.88545 22.5095 7.21435 22.24 7.89106C21.9827 8.53764 21.7 9.22616 21.3775 9.88082C20.7356 11.1844 19.9204 12.6859 18.7408 13.9382L18.691 13.9915C18.5516 14.1412 18.3938 14.3107 18.2785 14.3107C18.2608 14.3107 18.2416 14.3073 18.2198 14.3005C17.9754 14.2053 17.8114 13.6138 17.8189 13.3386C17.8189 13.3348 17.819 13.331 17.819 13.3272L17.8158 7.99197C17.8158 7.97347 17.8145 7.95514 17.8121 7.93681C17.6947 7.06951 17.4346 6.52963 16.4517 6.33715C16.4256 6.33194 16.399 6.32938 16.3724 6.32938H11.5726C10.7906 6.32938 10.3597 6.64722 9.95464 7.12294C9.84531 7.25011 9.61773 7.51485 9.73053 7.83599C9.84498 8.16191 10.2165 8.23161 10.3375 8.25423C10.938 8.36852 11.2764 8.73582 11.3723 9.3776C11.5397 10.492 11.5603 11.6816 11.437 13.1211C11.4027 13.5212 11.3347 13.8302 11.2228 14.0942C11.1968 14.1558 11.1045 14.3569 11.0105 14.3569C10.9806 14.3569 10.8941 14.3452 10.7366 14.2367C10.3643 13.9816 10.0919 13.6176 9.77429 13.168C8.69387 11.6411 7.7871 9.95902 7.0018 8.02451C6.71055 7.31237 6.16663 6.91369 5.46952 6.90197C4.70354 6.89032 4.00908 6.88471 3.34673 6.88471C2.62303 6.88471 1.9521 6.8914 1.29694 6.90502C0.736087 6.91493 0.348144 7.08306 0.144016 7.4051C-0.0604428 7.7274 -0.047148 8.15077 0.18357 8.66323C2.03047 12.7692 3.70503 15.7545 5.61336 18.3435C6.95052 20.155 8.29172 21.4089 9.83375 22.2893C11.4584 23.2187 13.279 23.6705 15.3995 23.6705C15.6399 23.6705 15.8885 23.6647 16.1391 23.653C17.3713 23.5929 17.8284 23.1469 17.8862 21.9472C17.9137 21.3341 17.9808 20.691 18.2822 20.1426C18.4725 19.7971 18.6498 19.7971 18.7081 19.7971C18.8204 19.7971 18.9597 19.8488 19.1092 19.9457C19.3774 20.1208 19.6074 20.3553 19.7959 20.5601C19.9734 20.7548 20.1488 20.9514 20.3245 21.1481C20.7035 21.5726 21.0954 22.0115 21.5048 22.4278C22.4009 23.3395 23.3881 23.7405 24.522 23.6535H28.7542C28.7632 23.6535 28.7723 23.6531 28.7813 23.6525C29.203 23.6247 29.5682 23.3908 29.7833 23.0108C30.0498 22.54 30.0444 21.9394 29.769 21.4038C29.4564 20.7982 29.051 20.2808 28.6957 19.8548Z" fill="white"/>
</g>
<defs>
<clipPath id="clip0">
<rect width="30" height="30" fill="white"/>
</clipPath>
</defs>
</svg>
